<svg xmlns="http://www.w3.org/2000/svg" viewBox="0 0 32 32" role="img" aria-label="">
  <defs>
    <linearGradient id="favicon-bg" x1="6" y1="4" x2="28" y2="30" gradientUnits="userSpaceOnUse">
      <stop stop-color="#2563eb"/>
      <stop offset="1" stop-color="#1d4ed8"/>
    </linearGradient>
  </defs>
  <rect width="32" height="32" rx="8" fill="url(#favicon-bg)"/>
  <!-- Lucide fuel (ISC): https://lucide.dev/icons/fuel — белый на фоне для читаемости в 16px -->
  <g fill="none" stroke="#fff" stroke-width="2.35" stroke-linecap="round" stroke-linejoin="round" transform="translate(4 4)">
    <line x1="3" x2="15" y1="22" y2="22"/>
    <line x1="4" x2="14" y1="9" y2="9"/>
    <path d="M14 22V4a2 2 0 0 0-2-2H6a2 2 0 0 0-2 2v18"/>
    <path d="M14 13h2a2 2 0 0 1 2 2v2a2 2 0 0 0 2 2a2 2 0 0 0 2-2V9.83a2 2 0 0 0-.59-1.42L18 5"/>
  </g>
</svg>
